<mxfile host="app.diagrams.net" agent="Mozilla/5.0 (Windows NT 10.0; Win64; x64) AppleWebKit/537.36 (KHTML, like Gecko) Chrome/138.0.0.0 Safari/537.36" version="28.0.7">
  <diagram name="Page-1" id="DJaiSCxyStryuXD7IBCH">
    <mxGraphModel dx="728" dy="394" grid="1" gridSize="10" guides="1" tooltips="1" connect="1" arrows="1" fold="1" page="1" pageScale="1" pageWidth="850" pageHeight="1100" math="0" shadow="0">
      <root>
        <mxCell id="0" />
        <mxCell id="1" parent="0" />
        <mxCell id="K80szP9dktqKqHOtu_gb-97" value="Student Information System" style="rounded=0;whiteSpace=wrap;html=1;fillColor=#fa6800;fontColor=#000000;strokeColor=#C73500;" vertex="1" parent="1">
          <mxGeometry x="150" y="20" width="350" height="30" as="geometry" />
        </mxCell>
        <mxCell id="K80szP9dktqKqHOtu_gb-98" value="Manage Timetable Details" style="rounded=0;whiteSpace=wrap;html=1;fillColor=#fa6800;fontColor=#000000;strokeColor=#C73500;" vertex="1" parent="1">
          <mxGeometry x="600" y="40" width="120" height="30" as="geometry" />
        </mxCell>
        <mxCell id="K80szP9dktqKqHOtu_gb-101" value="Manage Class Details" style="rounded=0;whiteSpace=wrap;html=1;fillColor=#fa6800;fontColor=#000000;strokeColor=#C73500;" vertex="1" parent="1">
          <mxGeometry x="600" y="140" width="120" height="30" as="geometry" />
        </mxCell>
        <mxCell id="K80szP9dktqKqHOtu_gb-102" value="Manage Students Details" style="rounded=0;whiteSpace=wrap;html=1;fillColor=#fa6800;fontColor=#000000;strokeColor=#C73500;" vertex="1" parent="1">
          <mxGeometry x="600" y="190" width="120" height="30" as="geometry" />
        </mxCell>
        <mxCell id="K80szP9dktqKqHOtu_gb-103" value="Manage Fees Details" style="rounded=0;whiteSpace=wrap;html=1;fillColor=#fa6800;fontColor=#000000;strokeColor=#C73500;" vertex="1" parent="1">
          <mxGeometry x="600" y="240" width="120" height="30" as="geometry" />
        </mxCell>
        <mxCell id="K80szP9dktqKqHOtu_gb-104" value="Manage Teacher Profiles" style="rounded=0;whiteSpace=wrap;html=1;fillColor=#fa6800;fontColor=#000000;strokeColor=#C73500;" vertex="1" parent="1">
          <mxGeometry x="600" y="290" width="120" height="30" as="geometry" />
        </mxCell>
        <mxCell id="K80szP9dktqKqHOtu_gb-105" value="Manage Report" style="rounded=0;whiteSpace=wrap;html=1;fillColor=#fa6800;fontColor=#000000;strokeColor=#C73500;" vertex="1" parent="1">
          <mxGeometry x="600" y="340" width="120" height="30" as="geometry" />
        </mxCell>
        <mxCell id="K80szP9dktqKqHOtu_gb-107" value="Manage System Admins" style="rounded=0;whiteSpace=wrap;html=1;fillColor=#fa6800;fontColor=#000000;strokeColor=#C73500;fontStyle=1" vertex="1" parent="1">
          <mxGeometry x="100" y="360" width="120" height="30" as="geometry" />
        </mxCell>
        <mxCell id="K80szP9dktqKqHOtu_gb-108" value="Manage Roles of User" style="rounded=0;whiteSpace=wrap;html=1;fillColor=#fa6800;fontColor=#000000;strokeColor=#C73500;" vertex="1" parent="1">
          <mxGeometry x="265" y="360" width="120" height="30" as="geometry" />
        </mxCell>
        <mxCell id="K80szP9dktqKqHOtu_gb-109" value="Manage User Permission" style="rounded=0;whiteSpace=wrap;html=1;fillColor=#fa6800;fontColor=#000000;strokeColor=#C73500;" vertex="1" parent="1">
          <mxGeometry x="425" y="360" width="120" height="30" as="geometry" />
        </mxCell>
        <mxCell id="K80szP9dktqKqHOtu_gb-110" value="Send Email to User" style="ellipse;whiteSpace=wrap;html=1;aspect=fixed;fillColor=#fa6800;fontColor=#000000;strokeColor=#C73500;" vertex="1" parent="1">
          <mxGeometry x="100" y="240" width="70" height="70" as="geometry" />
        </mxCell>
        <mxCell id="K80szP9dktqKqHOtu_gb-143" value="" style="edgeStyle=orthogonalEdgeStyle;rounded=0;orthogonalLoop=1;jettySize=auto;html=1;" edge="1" parent="1" source="K80szP9dktqKqHOtu_gb-111" target="K80szP9dktqKqHOtu_gb-110">
          <mxGeometry relative="1" as="geometry" />
        </mxCell>
        <mxCell id="K80szP9dktqKqHOtu_gb-111" value="Forget Password" style="ellipse;whiteSpace=wrap;html=1;aspect=fixed;fillColor=#fa6800;fontColor=#000000;strokeColor=#C73500;" vertex="1" parent="1">
          <mxGeometry x="100" y="140" width="70" height="70" as="geometry" />
        </mxCell>
        <mxCell id="K80szP9dktqKqHOtu_gb-114" value="Login to System" style="ellipse;whiteSpace=wrap;html=1;aspect=fixed;fillColor=#fa6800;fontColor=#000000;strokeColor=#C73500;" vertex="1" parent="1">
          <mxGeometry x="265" y="70" width="70" height="70" as="geometry" />
        </mxCell>
        <mxCell id="K80szP9dktqKqHOtu_gb-115" value="Check Credentials" style="ellipse;whiteSpace=wrap;html=1;aspect=fixed;fillColor=#fa6800;fontColor=#000000;strokeColor=#C73500;" vertex="1" parent="1">
          <mxGeometry x="265" y="190" width="70" height="70" as="geometry" />
        </mxCell>
        <mxCell id="K80szP9dktqKqHOtu_gb-116" value="Check Roles of Access" style="ellipse;whiteSpace=wrap;html=1;aspect=fixed;fillColor=#fa6800;fontColor=#000000;strokeColor=#C73500;" vertex="1" parent="1">
          <mxGeometry x="400" y="70" width="70" height="70" as="geometry" />
        </mxCell>
        <mxCell id="K80szP9dktqKqHOtu_gb-117" value="Manage Modules" style="ellipse;whiteSpace=wrap;html=1;aspect=fixed;fillColor=#fa6800;fontColor=#000000;strokeColor=#C73500;" vertex="1" parent="1">
          <mxGeometry x="400" y="190" width="70" height="70" as="geometry" />
        </mxCell>
        <mxCell id="K80szP9dktqKqHOtu_gb-119" value="Admin" style="rounded=0;whiteSpace=wrap;html=1;fillColor=#fa6800;fontColor=#000000;strokeColor=#C73500;" vertex="1" parent="1">
          <mxGeometry x="85" y="80" width="120" height="30" as="geometry" />
        </mxCell>
        <mxCell id="K80szP9dktqKqHOtu_gb-120" value="Manage Attendance Details" style="rounded=0;whiteSpace=wrap;html=1;fillColor=#fa6800;fontColor=#000000;strokeColor=#C73500;" vertex="1" parent="1">
          <mxGeometry x="600" y="90" width="120" height="30" as="geometry" />
        </mxCell>
        <mxCell id="K80szP9dktqKqHOtu_gb-124" value="" style="endArrow=classic;html=1;rounded=0;" edge="1" parent="1">
          <mxGeometry width="50" height="50" relative="1" as="geometry">
            <mxPoint x="450" y="190" as="sourcePoint" />
            <mxPoint x="590" y="60" as="targetPoint" />
            <Array as="points" />
          </mxGeometry>
        </mxCell>
        <mxCell id="K80szP9dktqKqHOtu_gb-125" value="" style="endArrow=classic;html=1;rounded=0;" edge="1" parent="1" source="K80szP9dktqKqHOtu_gb-117">
          <mxGeometry width="50" height="50" relative="1" as="geometry">
            <mxPoint x="470" y="220" as="sourcePoint" />
            <mxPoint x="590" y="100" as="targetPoint" />
            <Array as="points" />
          </mxGeometry>
        </mxCell>
        <mxCell id="K80szP9dktqKqHOtu_gb-126" value="" style="endArrow=classic;html=1;rounded=0;" edge="1" parent="1">
          <mxGeometry width="50" height="50" relative="1" as="geometry">
            <mxPoint x="470" y="220" as="sourcePoint" />
            <mxPoint x="590" y="150" as="targetPoint" />
            <Array as="points">
              <mxPoint x="470" y="220" />
            </Array>
          </mxGeometry>
        </mxCell>
        <mxCell id="K80szP9dktqKqHOtu_gb-127" value="" style="endArrow=classic;html=1;rounded=0;" edge="1" parent="1">
          <mxGeometry width="50" height="50" relative="1" as="geometry">
            <mxPoint x="470" y="240" as="sourcePoint" />
            <mxPoint x="610" y="210" as="targetPoint" />
            <Array as="points">
              <mxPoint x="470" y="240" />
              <mxPoint x="540" y="220" />
            </Array>
          </mxGeometry>
        </mxCell>
        <mxCell id="K80szP9dktqKqHOtu_gb-128" value="" style="endArrow=classic;html=1;rounded=0;exitX=0.638;exitY=0.002;exitDx=0;exitDy=0;exitPerimeter=0;" edge="1" parent="1" source="K80szP9dktqKqHOtu_gb-115">
          <mxGeometry width="50" height="50" relative="1" as="geometry">
            <mxPoint x="255" y="250" as="sourcePoint" />
            <mxPoint x="395" y="120" as="targetPoint" />
            <Array as="points">
              <mxPoint x="325" y="180" />
            </Array>
          </mxGeometry>
        </mxCell>
        <mxCell id="K80szP9dktqKqHOtu_gb-129" value="" style="endArrow=classic;html=1;rounded=0;" edge="1" parent="1">
          <mxGeometry width="50" height="50" relative="1" as="geometry">
            <mxPoint x="470" y="250" as="sourcePoint" />
            <mxPoint x="580" y="290" as="targetPoint" />
            <Array as="points">
              <mxPoint x="470" y="250" />
            </Array>
          </mxGeometry>
        </mxCell>
        <mxCell id="K80szP9dktqKqHOtu_gb-130" value="" style="endArrow=classic;html=1;rounded=0;" edge="1" parent="1">
          <mxGeometry width="50" height="50" relative="1" as="geometry">
            <mxPoint x="600" y="340" as="sourcePoint" />
            <mxPoint x="600" y="340" as="targetPoint" />
            <Array as="points">
              <mxPoint x="450" y="260" />
            </Array>
          </mxGeometry>
        </mxCell>
        <mxCell id="K80szP9dktqKqHOtu_gb-131" value="" style="endArrow=classic;html=1;rounded=0;" edge="1" parent="1">
          <mxGeometry width="50" height="50" relative="1" as="geometry">
            <mxPoint x="580" y="250" as="sourcePoint" />
            <mxPoint x="580" y="250" as="targetPoint" />
            <Array as="points">
              <mxPoint x="470" y="240" />
            </Array>
          </mxGeometry>
        </mxCell>
        <mxCell id="K80szP9dktqKqHOtu_gb-137" value="" style="endArrow=classic;html=1;rounded=0;entryX=0.461;entryY=0.006;entryDx=0;entryDy=0;entryPerimeter=0;exitX=0.071;exitY=0.857;exitDx=0;exitDy=0;exitPerimeter=0;" edge="1" parent="1" source="K80szP9dktqKqHOtu_gb-115" target="K80szP9dktqKqHOtu_gb-107">
          <mxGeometry width="50" height="50" relative="1" as="geometry">
            <mxPoint x="270" y="330" as="sourcePoint" />
            <mxPoint x="320" y="280" as="targetPoint" />
          </mxGeometry>
        </mxCell>
        <mxCell id="K80szP9dktqKqHOtu_gb-138" value="" style="endArrow=classic;html=1;rounded=0;" edge="1" parent="1">
          <mxGeometry width="50" height="50" relative="1" as="geometry">
            <mxPoint x="310" y="260" as="sourcePoint" />
            <mxPoint x="290" y="350" as="targetPoint" />
            <Array as="points">
              <mxPoint x="310" y="260" />
            </Array>
          </mxGeometry>
        </mxCell>
        <mxCell id="K80szP9dktqKqHOtu_gb-139" value="" style="endArrow=classic;html=1;rounded=0;exitX=0.981;exitY=0.8;exitDx=0;exitDy=0;exitPerimeter=0;" edge="1" parent="1" source="K80szP9dktqKqHOtu_gb-115">
          <mxGeometry width="50" height="50" relative="1" as="geometry">
            <mxPoint x="445" y="250" as="sourcePoint" />
            <mxPoint x="500" y="350" as="targetPoint" />
          </mxGeometry>
        </mxCell>
        <mxCell id="K80szP9dktqKqHOtu_gb-141" value="" style="endArrow=classic;html=1;rounded=0;" edge="1" parent="1">
          <mxGeometry width="50" height="50" relative="1" as="geometry">
            <mxPoint x="140" y="110" as="sourcePoint" />
            <mxPoint x="140" y="140" as="targetPoint" />
            <Array as="points">
              <mxPoint x="140" y="110" />
            </Array>
          </mxGeometry>
        </mxCell>
        <mxCell id="K80szP9dktqKqHOtu_gb-142" value="" style="endArrow=classic;html=1;rounded=0;" edge="1" parent="1">
          <mxGeometry width="50" height="50" relative="1" as="geometry">
            <mxPoint x="134.58" y="210" as="sourcePoint" />
            <mxPoint x="134.58" y="240" as="targetPoint" />
            <Array as="points">
              <mxPoint x="134.58" y="210" />
            </Array>
          </mxGeometry>
        </mxCell>
        <mxCell id="K80szP9dktqKqHOtu_gb-145" value="" style="endArrow=classic;html=1;rounded=0;" edge="1" parent="1">
          <mxGeometry width="50" height="50" relative="1" as="geometry">
            <mxPoint x="225" y="94.58" as="sourcePoint" />
            <mxPoint x="265" y="94.58" as="targetPoint" />
            <Array as="points">
              <mxPoint x="215" y="94.58" />
              <mxPoint x="225" y="94.58" />
              <mxPoint x="205" y="94.58" />
              <mxPoint x="245" y="94.58" />
            </Array>
          </mxGeometry>
        </mxCell>
        <mxCell id="K80szP9dktqKqHOtu_gb-146" value="" style="endArrow=classic;html=1;rounded=0;entryX=0.357;entryY=0;entryDx=0;entryDy=0;entryPerimeter=0;" edge="1" parent="1" target="K80szP9dktqKqHOtu_gb-115">
          <mxGeometry width="50" height="50" relative="1" as="geometry">
            <mxPoint x="310" y="140" as="sourcePoint" />
            <mxPoint x="310" y="190" as="targetPoint" />
            <Array as="points">
              <mxPoint x="300" y="140" />
              <mxPoint x="290" y="140" />
            </Array>
          </mxGeometry>
        </mxCell>
      </root>
    </mxGraphModel>
  </diagram>
</mxfile>
